<svg width="48" height="48" viewBox="0 0 48 48" fill="none" xmlns="http://www.w3.org/2000/svg">
<path fill-rule="evenodd" clip-rule="evenodd" d="M4 12C4 7.58172 7.58172 4 12 4H36C40.4182 4 44 7.58172 44 12V36C44 40.4182 40.4182 44 36 44H12C7.58172 44 4 40.4182 4 36V12ZM12 8C9.79086 8 8 9.79086 8 12V36C8 38.2092 9.79086 40 12 40H24V26H22C20.8954 26 20 25.1046 20 24C20 22.8954 20.8954 22 22 22H24V19C24 15.134 27.134 12 31 12H32.2C33.3046 12 34.2 12.8954 34.2 14C34.2 15.1046 33.3046 16 32.2 16H31C29.3432 16 28 17.3431 28 19V22H32.2C33.3046 22 34.2 22.8954 34.2 24C34.2 25.1046 33.3046 26 32.2 26H28V40H36C38.2092 40 40 38.2092 40 36V12C40 9.79086 38.2092 8 36 8H12Z" fill="#D99414"/>
</svg>
