<svg width="248" height="248" viewBox="0 0 248 248" fill="none" xmlns="http://www.w3.org/2000/svg">
<g clip-path="url(#clip0_13_33)">
<path d="M122.45 122.45C126.928 116.939 130.243 111.256 132.396 105.4C134.549 99.5445 135.625 92.7418 135.625 84.9918C135.625 77.2418 134.549 70.439 132.396 64.5834C130.243 58.7279 126.928 53.0445 122.45 47.5334C135.539 44.6057 147.035 46.5862 156.938 53.4751C166.84 60.364 171.792 70.8695 171.792 84.9918C171.792 99.114 166.84 109.62 156.938 116.508C147.035 123.397 135.539 125.378 122.45 122.45ZM178.25 206.667V182.383C178.25 173.6 176.011 165.42 171.533 157.842C167.056 150.264 159.306 143.892 148.283 138.725C178.078 142.514 198.443 148.025 209.379 155.258C220.315 162.492 225.783 171.533 225.783 182.383V206.667H178.25ZM206.667 132.008V106.175H180.833V90.6751H206.667V64.8418H222.167V90.6751H248V106.175H222.167V132.008H206.667ZM81.375 123.742C70.0083 123.742 60.7083 120.125 53.475 112.892C46.2417 105.658 42.625 96.3584 42.625 84.9918C42.625 73.6251 46.2417 64.3251 53.475 57.0918C60.7083 49.8584 70.0083 46.2418 81.375 46.2418C92.7417 46.2418 102.042 49.8584 109.275 57.0918C116.508 64.3251 120.125 73.6251 120.125 84.9918C120.125 96.3584 116.508 105.658 109.275 112.892C102.042 120.125 92.7417 123.742 81.375 123.742ZM0 206.667V182.383C0 176.356 1.59306 170.888 4.77917 165.979C7.96528 161.071 12.2278 157.411 17.5667 155C29.9667 149.489 41.0319 145.528 50.7625 143.117C60.4931 140.706 70.6972 139.5 81.375 139.5C92.0528 139.5 102.214 140.706 111.858 143.117C121.503 145.528 132.525 149.489 144.925 155C150.264 157.411 154.569 161.071 157.842 165.979C161.114 170.888 162.75 176.356 162.75 182.383V206.667H0ZM81.375 108.242C88.0917 108.242 93.6458 106.046 98.0375 101.654C102.429 97.2626 104.625 91.7084 104.625 84.9918C104.625 78.2751 102.429 72.7209 98.0375 68.3293C93.6458 63.9376 88.0917 61.7418 81.375 61.7418C74.6583 61.7418 69.1042 63.9376 64.7125 68.3293C60.3208 72.7209 58.125 78.2751 58.125 84.9918C58.125 91.7084 60.3208 97.2626 64.7125 101.654C69.1042 106.046 74.6583 108.242 81.375 108.242ZM15.5 191.167H147.25V182.383C147.25 179.628 146.561 177.045 145.183 174.633C143.806 172.222 141.653 170.328 138.725 168.95C126.842 163.439 116.767 159.736 108.5 157.842C100.233 155.947 91.1917 155 81.375 155C71.5583 155 62.5597 155.947 54.3792 157.842C46.1986 159.736 35.9944 163.439 23.7667 168.95C21.1833 170.156 19.1597 172.007 17.6958 174.504C16.2319 177.001 15.5 179.628 15.5 182.383V191.167Z" fill="#D99414"/>
</g>
<defs>
<clipPath id="clip0_13_33">
<rect width="248" height="248" fill="white"/>
</clipPath>
</defs>
</svg>
