<svg width="253" height="198" viewBox="0 0 253 198" fill="none" xmlns="http://www.w3.org/2000/svg">
<path d="M130.838 37.8372H130.842C130.847 37.842 130.847 37.842 130.847 37.842L130.838 37.8372Z" fill="#D99414"/>
<path d="M196.194 116.552C201.099 110.576 206.986 101.164 206.242 90.9898L155.722 40.4857C155.722 40.4857 146.572 38.2188 135.636 40.5919C134.054 39.559 132.453 38.6179 130.841 37.8379C122.654 33.8613 114.484 32.9597 108.367 33.0185C107.975 33.0185 107.601 33.0368 107.224 33.0481L97.8537 42.4157L99.3153 42.269C99.4873 42.2542 99.7443 42.2067 99.9123 42.1667C100.14 42.1119 103.773 41.2731 108.938 41.2805C113.569 41.2805 119.39 41.9726 125.17 44.3566C121.895 46.0633 118.66 48.3189 115.642 51.3367C98.9413 68.0326 83.7603 83.2085 83.7603 83.2085L83.7677 83.2159C83.6763 83.3073 83.5849 83.3843 83.493 83.4757C79.1668 87.7972 79.0022 94.6967 82.9949 99.2232C83.1485 99.3951 83.3175 99.5788 83.493 99.7542C87.9842 104.248 95.2743 104.255 99.7764 99.7542L117.312 82.2235C120.334 83.326 123.309 83.9742 126.162 84.2962C130.045 84.7359 133.705 84.5709 136.951 84.113C144.867 82.9926 148.626 81.806 148.626 81.806L189.959 123.13C189.959 123.13 190.193 122.925 190.548 122.599L196.519 128.568C198.076 130.129 198.834 132.131 198.838 134.175C198.834 136.211 198.073 138.218 196.516 139.778C194.955 141.331 192.955 142.092 190.915 142.096C188.874 142.092 186.87 141.331 185.31 139.778C184.54 139.009 183.474 138.566 182.386 138.569C181.295 138.566 180.232 139.009 179.463 139.778C178.694 140.547 178.254 141.609 178.254 142.7C178.254 143.788 178.694 144.85 179.463 145.623C181.02 147.179 181.782 149.182 181.785 151.226C181.781 153.262 181.02 155.269 179.46 156.825C177.899 158.382 175.895 159.144 173.858 159.151C171.814 159.144 169.814 158.382 168.253 156.825C167.485 156.06 166.418 155.617 165.331 155.621C164.239 155.617 163.176 156.06 162.407 156.825C161.638 157.598 161.199 158.66 161.199 159.751C161.199 160.835 161.638 161.901 162.407 162.674C163.964 164.23 164.726 166.234 164.73 168.27C164.726 170.313 163.964 172.319 162.407 173.873C160.846 175.433 158.843 176.194 156.802 176.198C154.762 176.194 152.758 175.433 151.198 173.873L147.699 170.379C147.695 170.372 147.688 170.364 147.681 170.357C146.915 169.592 145.846 169.148 144.761 169.148C143.669 169.148 142.607 169.592 141.838 170.364C141.069 171.126 140.625 172.195 140.625 173.283C140.625 174.371 141.069 175.432 141.838 176.201C143.395 177.761 144.157 179.768 144.161 181.812C144.153 183.848 143.391 185.854 141.835 187.411C140.278 188.967 138.274 189.729 136.233 189.733C134.189 189.729 132.185 188.967 130.629 187.411L128.141 184.925L129.002 184.068C133.478 179.593 133.482 172.338 129.005 167.863C124.529 163.388 117.271 163.388 112.796 167.863L111.935 168.723L111.506 168.299C113.711 163.988 113.059 158.601 109.454 154.998C105.85 151.395 100.461 150.742 96.1494 152.947L95.2955 152.094C97.5009 147.786 96.8525 142.399 93.2478 138.796C89.6435 135.193 84.251 134.541 79.9431 136.745L79.0892 135.892C81.2945 131.585 80.6462 126.198 77.0415 122.595C73.4332 118.991 68.0446 118.34 63.7362 120.544L59.5968 116.406L59.3438 116.171C59.3072 116.142 58.6772 115.6 57.7102 114.633C57.1864 114.11 56.5598 113.454 55.8749 112.689L55.8715 112.685L55.7796 112.586L55.7944 112.604C53.6222 110.165 50.8925 106.613 48.8705 102.439C47.6139 99.8456 46.632 97.0402 46.1522 94.0995L39.3534 100.897C39.9503 102.706 40.65 104.438 41.4342 106.046C43.9217 111.158 47.0975 115.26 49.6251 118.098L49.6364 118.12L49.7278 118.219L49.7239 118.208C50.515 119.091 51.2404 119.849 51.867 120.479C52.8449 121.453 53.5559 122.09 53.8564 122.35L57.4646 125.957L50.8046 132.615C46.3277 137.09 46.3316 144.341 50.8046 148.817C55.281 153.291 62.534 153.291 67.0144 148.817C62.534 153.291 62.5374 160.547 67.0144 165.022C71.4908 169.493 78.7438 169.493 83.2207 165.022C78.7438 169.493 78.7438 176.752 83.2207 181.224C87.7006 185.699 94.9541 185.699 99.4305 181.224L106.087 174.569L102.771 177.887C98.2915 182.363 98.2944 189.614 102.771 194.089C107.248 198.564 114.498 198.564 118.978 194.089L122.293 190.771L124.78 193.257C127.931 196.411 132.1 198.007 136.232 198C140.36 198.007 144.529 196.411 147.679 193.257C150.321 190.617 151.856 187.263 152.288 183.817C153.76 184.245 155.28 184.465 156.801 184.465C160.933 184.465 165.098 182.876 168.252 179.718C171.403 176.569 173 172.401 172.996 168.278C172.996 167.974 172.967 167.674 172.952 167.373C173.253 167.388 173.557 167.413 173.857 167.413C177.986 167.421 182.154 165.824 185.304 162.671C188.459 159.518 190.052 155.354 190.048 151.227C190.048 150.923 190.026 150.619 190.008 150.319C190.308 150.337 190.609 150.363 190.913 150.363C195.041 150.363 199.211 148.773 202.357 145.624C205.515 142.471 207.108 138.307 207.105 134.176C207.112 130.046 205.519 125.878 202.364 122.728L196.194 116.552Z" fill="#D99414"/>
<path d="M68.4706 1.67017L0 70.1156L28.3904 98.5013L96.8639 30.0514L68.4706 1.67017ZM34.2331 74.2903C31.4674 77.0591 26.9801 77.0591 24.2139 74.2903C21.4482 71.5289 21.4482 67.0395 24.2139 64.2781C26.9796 61.5093 31.4674 61.5093 34.2331 64.2781C37.0027 67.0395 37.0027 71.5294 34.2331 74.2903Z" fill="#D99414"/>
<path d="M184.53 0L156.136 28.3813L224.61 96.8306L253 68.4494L184.53 0ZM218.763 72.6246C215.998 69.8597 215.998 65.3698 218.763 62.6084C221.533 59.8396 226.016 59.8396 228.786 62.6084C231.552 65.3693 231.552 69.8592 228.786 72.6246C226.016 75.3894 221.533 75.3894 218.763 72.6246Z" fill="#D99414"/>
</svg>
