<svg width="324" height="428" viewBox="0 0 324 428" fill="none" xmlns="http://www.w3.org/2000/svg">
<path d="M2.53906 19V0.439453H4.69727V19H2.53906ZM16.0723 4.83203C17.7227 4.83203 18.971 5.23828 19.8174 6.05078C20.6637 6.85482 21.0869 8.14974 21.0869 9.93555V19H19.0049V10.0752C19.0049 8.91569 18.7383 8.04818 18.2051 7.47266C17.6803 6.89714 16.8721 6.60938 15.7803 6.60938C14.2399 6.60938 13.1566 7.04525 12.5303 7.91699C11.904 8.78874 11.5908 10.054 11.5908 11.7129V19H9.4834V5.08594H11.1846L11.502 7.0918H11.6162C11.9124 6.60091 12.2891 6.19043 12.7461 5.86035C13.2031 5.52181 13.7152 5.2679 14.2822 5.09863C14.8493 4.9209 15.446 4.83203 16.0723 4.83203ZM34.4297 15.1914C34.4297 16.0801 34.2054 16.8291 33.7568 17.4385C33.3167 18.0394 32.682 18.4922 31.8525 18.7969C31.0316 19.1016 30.0498 19.2539 28.9072 19.2539C27.9339 19.2539 27.0918 19.1777 26.3809 19.0254C25.6699 18.873 25.0479 18.6572 24.5146 18.3779V16.4355C25.0817 16.7148 25.7588 16.9688 26.5459 17.1973C27.333 17.4258 28.137 17.54 28.958 17.54C30.1598 17.54 31.0316 17.3454 31.5732 16.9561C32.1149 16.5667 32.3857 16.0378 32.3857 15.3691C32.3857 14.9883 32.2757 14.654 32.0557 14.3662C31.8441 14.07 31.4844 13.7865 30.9766 13.5156C30.4688 13.2363 29.7663 12.9316 28.8691 12.6016C27.9805 12.263 27.2103 11.9287 26.5586 11.5986C25.9154 11.2601 25.416 10.8496 25.0605 10.3672C24.7135 9.88477 24.54 9.25846 24.54 8.48828C24.54 7.31185 25.014 6.41048 25.9619 5.78418C26.9183 5.14941 28.1709 4.83203 29.7197 4.83203C30.5576 4.83203 31.3405 4.91667 32.0684 5.08594C32.8047 5.24674 33.4902 5.4668 34.125 5.74609L33.4141 7.43457C32.8385 7.18913 32.2249 6.98177 31.5732 6.8125C30.9215 6.64323 30.2572 6.55859 29.5801 6.55859C28.6068 6.55859 27.8577 6.7194 27.333 7.04102C26.8167 7.36263 26.5586 7.80273 26.5586 8.36133C26.5586 8.79297 26.6771 9.14844 26.9141 9.42773C27.1595 9.70703 27.5488 9.9694 28.082 10.2148C28.6152 10.4603 29.3177 10.748 30.1895 11.0781C31.0612 11.3997 31.8145 11.734 32.4492 12.0811C33.084 12.4196 33.5706 12.8343 33.9092 13.3252C34.2562 13.8076 34.4297 14.4297 34.4297 15.1914ZM42.3135 17.5273C42.6605 17.5273 43.016 17.4977 43.3799 17.4385C43.7438 17.3792 44.04 17.3073 44.2686 17.2227V18.8604C44.0231 18.9704 43.6803 19.0635 43.2402 19.1396C42.8086 19.2158 42.3854 19.2539 41.9707 19.2539C41.2344 19.2539 40.5658 19.127 39.9648 18.873C39.3639 18.6107 38.8815 18.1706 38.5176 17.5527C38.1621 16.9349 37.9844 16.0801 37.9844 14.9883V6.73633H36.0039V5.70801L37.9971 4.88281L38.835 1.86133H40.1045V5.08594H44.1797V6.73633H40.1045V14.9248C40.1045 15.7965 40.3034 16.4482 40.7012 16.8799C41.1074 17.3115 41.6449 17.5273 42.3135 17.5273ZM52.292 4.85742C53.9508 4.85742 55.1823 5.22982 55.9863 5.97461C56.7904 6.7194 57.1924 7.90853 57.1924 9.54199V19H55.6562L55.25 16.9434H55.1484C54.7591 17.4512 54.3529 17.8786 53.9297 18.2256C53.5065 18.5641 53.0156 18.8223 52.457 19C51.9069 19.1693 51.2298 19.2539 50.4258 19.2539C49.5794 19.2539 48.8262 19.1058 48.166 18.8096C47.5143 18.5133 46.998 18.0648 46.6172 17.4639C46.2448 16.863 46.0586 16.1012 46.0586 15.1787C46.0586 13.7907 46.6087 12.7243 47.709 11.9795C48.8092 11.2347 50.485 10.8285 52.7363 10.7607L55.1357 10.6592V9.80859C55.1357 8.60677 54.8776 7.76465 54.3613 7.28223C53.8451 6.7998 53.1172 6.55859 52.1777 6.55859C51.4499 6.55859 50.7559 6.66439 50.0957 6.87598C49.4355 7.08757 48.8092 7.33724 48.2168 7.625L47.5693 6.02539C48.1956 5.70378 48.915 5.42871 49.7275 5.2002C50.54 4.97168 51.3949 4.85742 52.292 4.85742ZM55.1104 12.1445L52.9902 12.2334C51.2552 12.3011 50.0322 12.5846 49.3213 13.084C48.6104 13.5833 48.2549 14.29 48.2549 15.2041C48.2549 15.9997 48.4961 16.5879 48.9785 16.9688C49.4609 17.3496 50.0999 17.54 50.8955 17.54C52.1312 17.54 53.1426 17.1973 53.9297 16.5117C54.7168 15.8262 55.1104 14.7979 55.1104 13.4268V12.1445ZM65.4189 25.2461C63.5908 25.2461 62.1816 24.9033 61.1914 24.2178C60.2012 23.5407 59.7061 22.5885 59.7061 21.3613C59.7061 20.4896 59.9811 19.7448 60.5312 19.127C61.0898 18.5091 61.86 18.0986 62.8418 17.8955C62.4779 17.7262 62.1647 17.4723 61.9023 17.1338C61.6484 16.7952 61.5215 16.4059 61.5215 15.9658C61.5215 15.458 61.6611 15.0137 61.9404 14.6328C62.2282 14.2435 62.6641 13.8711 63.248 13.5156C62.5202 13.2194 61.9277 12.7201 61.4707 12.0176C61.0221 11.3066 60.7979 10.4814 60.7979 9.54199C60.7979 8.54329 61.0052 7.69271 61.4199 6.99023C61.8346 6.2793 62.4355 5.73763 63.2227 5.36523C64.0098 4.99284 64.9619 4.80664 66.0791 4.80664C66.3245 4.80664 66.57 4.81934 66.8154 4.84473C67.0693 4.86165 67.3105 4.89128 67.5391 4.93359C67.7676 4.96745 67.9665 5.00977 68.1357 5.06055H72.9092V6.41895L70.3447 6.73633C70.5986 7.06641 70.8102 7.46419 70.9795 7.92969C71.1488 8.39518 71.2334 8.91146 71.2334 9.47852C71.2334 10.8665 70.7637 11.971 69.8242 12.792C68.8848 13.6045 67.5941 14.0107 65.9521 14.0107C65.5628 14.0107 65.165 13.9769 64.7588 13.9092C64.3441 14.1377 64.0267 14.3916 63.8066 14.6709C63.5951 14.9502 63.4893 15.2718 63.4893 15.6357C63.4893 15.9066 63.5697 16.1224 63.7305 16.2832C63.8997 16.444 64.141 16.5625 64.4541 16.6387C64.7673 16.7064 65.1439 16.7402 65.584 16.7402H68.0342C69.5492 16.7402 70.7087 17.0576 71.5127 17.6924C72.3252 18.3271 72.7314 19.2539 72.7314 20.4727C72.7314 22.013 72.1051 23.1937 70.8525 24.0146C69.5999 24.8356 67.7887 25.2461 65.4189 25.2461ZM65.4824 23.5957C66.6335 23.5957 67.5856 23.4772 68.3389 23.2402C69.1006 23.0117 69.6676 22.6774 70.04 22.2373C70.4209 21.8057 70.6113 21.2894 70.6113 20.6885C70.6113 20.1299 70.4844 19.7067 70.2305 19.4189C69.9766 19.1396 69.6042 18.9535 69.1133 18.8604C68.6224 18.7588 68.0215 18.708 67.3105 18.708H64.8984C64.2721 18.708 63.7262 18.8053 63.2607 19C62.7952 19.1947 62.4355 19.4824 62.1816 19.8633C61.9362 20.2441 61.8135 20.7181 61.8135 21.2852C61.8135 22.0384 62.1309 22.6097 62.7656 22.999C63.4004 23.3968 64.306 23.5957 65.4824 23.5957ZM66.0283 12.4746C67.0355 12.4746 67.793 12.2207 68.3008 11.7129C68.8086 11.2051 69.0625 10.4645 69.0625 9.49121C69.0625 8.4502 68.8044 7.67155 68.2881 7.15527C67.7718 6.63053 67.0101 6.36816 66.0029 6.36816C65.0381 6.36816 64.2933 6.639 63.7686 7.18066C63.2523 7.71387 62.9941 8.49674 62.9941 9.5293C62.9941 10.4772 63.2565 11.2051 63.7812 11.7129C64.306 12.2207 65.055 12.4746 66.0283 12.4746ZM81.9736 4.83203C82.2529 4.83203 82.5449 4.84896 82.8496 4.88281C83.1543 4.9082 83.4251 4.94629 83.6621 4.99707L83.3955 6.95215C83.167 6.8929 82.9131 6.84635 82.6338 6.8125C82.3545 6.77865 82.0921 6.76172 81.8467 6.76172C81.2881 6.76172 80.7591 6.87598 80.2598 7.10449C79.7689 7.32454 79.3372 7.64616 78.9648 8.06934C78.5924 8.48405 78.3005 8.98763 78.0889 9.58008C77.8773 10.1641 77.7715 10.8158 77.7715 11.5352V19H75.6514V5.08594H77.4033L77.6318 7.65039H77.7207C78.0085 7.13411 78.3555 6.66439 78.7617 6.24121C79.168 5.80957 79.6377 5.4668 80.1709 5.21289C80.7126 4.95898 81.3135 4.83203 81.9736 4.83203ZM91.4951 4.85742C93.154 4.85742 94.3854 5.22982 95.1895 5.97461C95.9935 6.7194 96.3955 7.90853 96.3955 9.54199V19H94.8594L94.4531 16.9434H94.3516C93.9622 17.4512 93.556 17.8786 93.1328 18.2256C92.7096 18.5641 92.2188 18.8223 91.6602 19C91.11 19.1693 90.4329 19.2539 89.6289 19.2539C88.7826 19.2539 88.0293 19.1058 87.3691 18.8096C86.7174 18.5133 86.2012 18.0648 85.8203 17.4639C85.4479 16.863 85.2617 16.1012 85.2617 15.1787C85.2617 13.7907 85.8118 12.7243 86.9121 11.9795C88.0124 11.2347 89.6882 10.8285 91.9395 10.7607L94.3389 10.6592V9.80859C94.3389 8.60677 94.0807 7.76465 93.5645 7.28223C93.0482 6.7998 92.3203 6.55859 91.3809 6.55859C90.653 6.55859 89.959 6.66439 89.2988 6.87598C88.6387 7.08757 88.0124 7.33724 87.4199 7.625L86.7725 6.02539C87.3988 5.70378 88.1182 5.42871 88.9307 5.2002C89.7432 4.97168 90.598 4.85742 91.4951 4.85742ZM94.3135 12.1445L92.1934 12.2334C90.4583 12.3011 89.2354 12.5846 88.5244 13.084C87.8135 13.5833 87.458 14.29 87.458 15.2041C87.458 15.9997 87.6992 16.5879 88.1816 16.9688C88.6641 17.3496 89.3031 17.54 90.0986 17.54C91.3343 17.54 92.3457 17.1973 93.1328 16.5117C93.9199 15.8262 94.3135 14.7979 94.3135 13.4268V12.1445ZM115.845 4.83203C117.377 4.83203 118.532 5.23405 119.311 6.03809C120.089 6.83366 120.479 8.11589 120.479 9.88477V19H118.396V9.98633C118.396 8.86068 118.151 8.01855 117.66 7.45996C117.178 6.8929 116.458 6.60938 115.502 6.60938C114.156 6.60938 113.179 6.9987 112.569 7.77734C111.96 8.55599 111.655 9.7028 111.655 11.2178V19H109.561V9.98633C109.561 9.23307 109.451 8.60677 109.23 8.10742C109.019 7.60807 108.697 7.23568 108.266 6.99023C107.842 6.73633 107.305 6.60938 106.653 6.60938C105.731 6.60938 104.99 6.7998 104.432 7.18066C103.873 7.56152 103.467 8.12858 103.213 8.88184C102.967 9.62663 102.845 10.5449 102.845 11.6367V19H100.737V5.08594H102.438L102.756 7.05371H102.87C103.149 6.57129 103.501 6.16504 103.924 5.83496C104.347 5.50488 104.821 5.25521 105.346 5.08594C105.87 4.91667 106.429 4.83203 107.021 4.83203C108.079 4.83203 108.964 5.03092 109.675 5.42871C110.394 5.81803 110.915 6.41471 111.236 7.21875H111.351C111.808 6.41471 112.434 5.81803 113.229 5.42871C114.025 5.03092 114.897 4.83203 115.845 4.83203Z" fill="white"/>
<path d="M220.417 173.341H216.951V185.604H214.844V173.341H212.381V172.325L214.844 171.627V170.7C214.844 169.532 215.017 168.584 215.364 167.856C215.711 167.12 216.215 166.578 216.875 166.231C217.535 165.884 218.339 165.711 219.287 165.711C219.82 165.711 220.307 165.757 220.747 165.851C221.196 165.944 221.589 166.049 221.928 166.168L221.382 167.831C221.094 167.738 220.768 167.653 220.404 167.577C220.049 167.492 219.685 167.45 219.312 167.45C218.508 167.45 217.912 167.713 217.522 168.237C217.142 168.754 216.951 169.566 216.951 170.675V171.69H220.417V173.341ZM228.187 171.462C229.845 171.462 231.077 171.834 231.881 172.579C232.685 173.324 233.087 174.513 233.087 176.146V185.604H231.551L231.145 183.548H231.043C230.654 184.056 230.247 184.483 229.824 184.83C229.401 185.169 228.91 185.427 228.352 185.604C227.801 185.774 227.124 185.858 226.32 185.858C225.474 185.858 224.721 185.71 224.061 185.414C223.409 185.118 222.893 184.669 222.512 184.068C222.139 183.467 221.953 182.706 221.953 181.783C221.953 180.395 222.503 179.329 223.604 178.584C224.704 177.839 226.38 177.433 228.631 177.365L231.03 177.264V176.413C231.03 175.211 230.772 174.369 230.256 173.887C229.74 173.404 229.012 173.163 228.072 173.163C227.344 173.163 226.65 173.269 225.99 173.48C225.33 173.692 224.704 173.942 224.111 174.229L223.464 172.63C224.09 172.308 224.81 172.033 225.622 171.805C226.435 171.576 227.289 171.462 228.187 171.462ZM231.005 178.749L228.885 178.838C227.15 178.906 225.927 179.189 225.216 179.688C224.505 180.188 224.149 180.894 224.149 181.809C224.149 182.604 224.391 183.192 224.873 183.573C225.355 183.954 225.994 184.144 226.79 184.144C228.026 184.144 229.037 183.802 229.824 183.116C230.611 182.431 231.005 181.402 231.005 180.031V178.749ZM243.002 185.858C241.749 185.858 240.645 185.6 239.688 185.084C238.732 184.568 237.987 183.781 237.454 182.723C236.921 181.665 236.654 180.332 236.654 178.724C236.654 177.039 236.934 175.664 237.492 174.598C238.059 173.523 238.838 172.727 239.828 172.211C240.818 171.695 241.944 171.436 243.205 171.436C243.899 171.436 244.568 171.508 245.211 171.652C245.863 171.788 246.396 171.961 246.811 172.173L246.176 173.937C245.753 173.768 245.262 173.616 244.703 173.48C244.153 173.345 243.637 173.277 243.154 173.277C242.189 173.277 241.385 173.485 240.742 173.899C240.107 174.314 239.629 174.923 239.308 175.727C238.994 176.532 238.838 177.522 238.838 178.698C238.838 179.824 238.99 180.784 239.295 181.58C239.608 182.376 240.069 182.985 240.679 183.408C241.297 183.823 242.067 184.03 242.989 184.03C243.726 184.03 244.39 183.954 244.982 183.802C245.575 183.641 246.112 183.455 246.595 183.243V185.122C246.129 185.359 245.609 185.541 245.033 185.668C244.466 185.795 243.789 185.858 243.002 185.858ZM255.253 171.436C256.438 171.436 257.453 171.699 258.3 172.224C259.146 172.748 259.794 173.485 260.242 174.433C260.691 175.372 260.915 176.472 260.915 177.733V179.041H251.305C251.33 180.674 251.736 181.919 252.523 182.773C253.311 183.628 254.419 184.056 255.85 184.056C256.73 184.056 257.508 183.975 258.186 183.814C258.863 183.654 259.565 183.417 260.293 183.103V184.957C259.59 185.27 258.892 185.499 258.198 185.643C257.513 185.786 256.7 185.858 255.761 185.858C254.424 185.858 253.256 185.588 252.257 185.046C251.267 184.496 250.496 183.692 249.946 182.634C249.396 181.576 249.121 180.281 249.121 178.749C249.121 177.251 249.371 175.956 249.87 174.864C250.378 173.764 251.089 172.918 252.003 172.325C252.925 171.733 254.009 171.436 255.253 171.436ZM255.228 173.163C254.102 173.163 253.205 173.531 252.536 174.268C251.868 175.004 251.47 176.032 251.343 177.352H258.706C258.698 176.523 258.566 175.795 258.312 175.169C258.067 174.534 257.69 174.043 257.183 173.696C256.675 173.341 256.023 173.163 255.228 173.163ZM266.603 165.851V170.789C266.603 171.356 266.586 171.906 266.552 172.439C266.526 172.973 266.505 173.387 266.488 173.684H266.603C266.983 173.057 267.534 172.528 268.253 172.097C268.972 171.665 269.891 171.449 271.008 171.449C272.751 171.449 274.139 172.054 275.172 173.265C276.213 174.466 276.733 176.256 276.733 178.635C276.733 180.2 276.496 181.521 276.022 182.596C275.549 183.671 274.88 184.483 274.017 185.033C273.153 185.583 272.133 185.858 270.957 185.858C269.857 185.858 268.951 185.655 268.24 185.249C267.538 184.834 266.996 184.331 266.615 183.738H266.45L266.019 185.604H264.495V165.851H266.603ZM270.665 173.214C269.658 173.214 268.858 173.413 268.266 173.81C267.673 174.2 267.246 174.792 266.983 175.588C266.729 176.375 266.603 177.374 266.603 178.584V178.698C266.603 180.45 266.895 181.792 267.479 182.723C268.062 183.645 269.125 184.106 270.665 184.106C271.96 184.106 272.929 183.632 273.572 182.685C274.224 181.737 274.55 180.382 274.55 178.622C274.55 176.828 274.228 175.478 273.585 174.572C272.95 173.667 271.977 173.214 270.665 173.214ZM292.412 178.622C292.412 179.765 292.264 180.784 291.968 181.682C291.672 182.579 291.244 183.336 290.686 183.954C290.127 184.572 289.45 185.046 288.654 185.376C287.867 185.698 286.974 185.858 285.976 185.858C285.045 185.858 284.19 185.698 283.411 185.376C282.641 185.046 281.972 184.572 281.405 183.954C280.847 183.336 280.411 182.579 280.098 181.682C279.793 180.784 279.641 179.765 279.641 178.622C279.641 177.099 279.899 175.804 280.415 174.737C280.931 173.662 281.668 172.846 282.624 172.287C283.589 171.72 284.736 171.436 286.064 171.436C287.334 171.436 288.443 171.72 289.391 172.287C290.347 172.854 291.088 173.675 291.612 174.75C292.146 175.816 292.412 177.107 292.412 178.622ZM281.824 178.622C281.824 179.739 281.972 180.708 282.269 181.529C282.565 182.35 283.022 182.985 283.64 183.434C284.257 183.882 285.053 184.106 286.026 184.106C286.991 184.106 287.783 183.882 288.4 183.434C289.027 182.985 289.488 182.35 289.784 181.529C290.08 180.708 290.229 179.739 290.229 178.622C290.229 177.513 290.08 176.557 289.784 175.753C289.488 174.94 289.031 174.314 288.413 173.874C287.795 173.434 286.995 173.214 286.014 173.214C284.566 173.214 283.504 173.692 282.827 174.648C282.159 175.605 281.824 176.929 281.824 178.622ZM308.053 178.622C308.053 179.765 307.905 180.784 307.608 181.682C307.312 182.579 306.885 183.336 306.326 183.954C305.768 184.572 305.09 185.046 304.295 185.376C303.508 185.698 302.615 185.858 301.616 185.858C300.685 185.858 299.83 185.698 299.052 185.376C298.282 185.046 297.613 184.572 297.046 183.954C296.487 183.336 296.051 182.579 295.738 181.682C295.434 180.784 295.281 179.765 295.281 178.622C295.281 177.099 295.539 175.804 296.056 174.737C296.572 173.662 297.308 172.846 298.265 172.287C299.229 171.72 300.376 171.436 301.705 171.436C302.975 171.436 304.083 171.72 305.031 172.287C305.988 172.854 306.728 173.675 307.253 174.75C307.786 175.816 308.053 177.107 308.053 178.622ZM297.465 178.622C297.465 179.739 297.613 180.708 297.909 181.529C298.205 182.35 298.662 182.985 299.28 183.434C299.898 183.882 300.694 184.106 301.667 184.106C302.632 184.106 303.423 183.882 304.041 183.434C304.667 182.985 305.129 182.35 305.425 181.529C305.721 180.708 305.869 179.739 305.869 178.622C305.869 177.513 305.721 176.557 305.425 175.753C305.129 174.94 304.672 174.314 304.054 173.874C303.436 173.434 302.636 173.214 301.654 173.214C300.207 173.214 299.145 173.692 298.468 174.648C297.799 175.605 297.465 176.929 297.465 178.622ZM313.791 165.851V176.108C313.791 176.447 313.778 176.862 313.753 177.352C313.728 177.835 313.706 178.262 313.689 178.635H313.778C313.956 178.415 314.214 178.089 314.553 177.657C314.9 177.226 315.192 176.879 315.429 176.616L320.05 171.69H322.525L316.927 177.632L322.932 185.604H320.393L315.479 179.016L313.791 180.564V185.604H311.696V165.851H313.791Z" fill="white"/>
<path d="M0.333333 35.774C0.333333 41.665 5.10896 46.4406 11 46.4406C16.891 46.4406 21.6667 41.665 21.6667 35.774C21.6667 29.8829 16.891 25.1073 11 25.1073C5.10896 25.1073 0.333333 29.8829 0.333333 35.774ZM112 35.774L113.69 34.704L113.101 33.774H112V35.774ZM213 195.288L211.31 196.358L211.899 197.288H213V195.288ZM311 195.288L312.575 196.52L315.104 193.288H311V195.288ZM141.5 411.912V413.912H142.475L143.075 413.144L141.5 411.912ZM31.3333 411.912C31.3333 417.803 36.109 422.578 42 422.578C47.891 422.578 52.6667 417.803 52.6667 411.912C52.6667 406.021 47.891 401.245 42 401.245C36.109 401.245 31.3333 406.021 31.3333 411.912ZM11 37.774H112V33.774H11V37.774ZM110.31 36.8439L211.31 196.358L214.69 194.218L113.69 34.704L110.31 36.8439ZM213 197.288H311V193.288H213V197.288ZM309.425 194.055L139.925 410.679L143.075 413.144L312.575 196.52L309.425 194.055ZM141.5 409.912H42V413.912H141.5V409.912Z" fill="url(#paint0_linear_3_40)"/>
<path d="M96 380.152C92.7917 380.152 90.1667 379.108 88.125 377.021C86.0834 374.934 85.0625 372.251 85.0625 368.972C85.0625 365.693 86.0834 363.01 88.125 360.923C90.1667 358.836 92.7917 357.793 96 357.793C99.2084 357.793 101.833 358.836 103.875 360.923C105.917 363.01 106.938 365.693 106.938 368.972C106.938 372.251 105.917 374.934 103.875 377.021C101.833 379.108 99.2084 380.152 96 380.152ZM72.6667 404.075V397.07C72.6667 395.182 73.1285 393.567 74.0521 392.225C74.9757 390.884 76.1667 389.865 77.625 389.17C80.882 387.679 84.0052 386.561 86.9948 385.816C89.9844 385.07 92.9861 384.698 96 384.698C99.0139 384.698 102.003 385.083 104.969 385.853C107.934 386.623 111.043 387.733 114.296 389.184C115.818 389.886 117.038 390.904 117.956 392.237C118.874 393.571 119.333 395.182 119.333 397.07V404.075H72.6667ZM77.0417 399.604H114.958V397.07C114.958 396.275 114.727 395.517 114.266 394.796C113.804 394.076 113.233 393.542 112.552 393.194C109.441 391.654 106.597 390.598 104.021 390.027C101.444 389.455 98.7709 389.17 96 389.17C93.2292 389.17 90.5313 389.455 87.9063 390.027C85.2813 390.598 82.4375 391.654 79.375 393.194C78.6945 393.542 78.1354 394.076 77.6979 394.796C77.2604 395.517 77.0417 396.275 77.0417 397.07V399.604ZM96 375.68C97.8959 375.68 99.4636 375.046 100.703 373.779C101.943 372.512 102.563 370.91 102.563 368.972C102.563 367.034 101.943 365.432 100.703 364.165C99.4636 362.898 97.8959 362.265 96 362.265C94.1042 362.265 92.5365 362.898 91.2969 364.165C90.0573 365.432 89.4375 367.034 89.4375 368.972C89.4375 370.91 90.0573 372.512 91.2969 373.779C92.5365 375.046 94.1042 375.68 96 375.68Z" fill="#D99414"/>
<defs>
<linearGradient id="paint0_linear_3_40" x1="161" y1="35.774" x2="161" y2="411.912" gradientUnits="userSpaceOnUse">
<stop offset="0.00585956" stop-color="white"/>
<stop offset="0.420418" stop-color="#A6460F"/>
<stop offset="0.963874" stop-color="#D99414"/>
</linearGradient>
</defs>
</svg>
